<?xml version="1.0" encoding="UTF-8"?>
<svg version="1.1" xmlns="http://www.w3.org/2000/svg" width="1024" height="1024">
<path d="M0 0 C337.92 0 675.84 0 1024 0 C1024 337.92 1024 675.84 1024 1024 C686.08 1024 348.16 1024 0 1024 C0 686.08 0 348.16 0 0 Z " fill="#B0B1B1" transform="translate(0,0)"/>
<path d="M0 0 C7.52811793 0.4343145 16.53219681 2.53219681 22 8 C22.01953125 9.90625 22.01953125 9.90625 21 12 C18.19921875 13.78125 18.19921875 13.78125 14.6875 15.5 C9.48655353 18.0626164 5.40659154 20.18681693 2.75 25.5 C0.43046336 36.32450433 1.9198425 47.32254133 7.73046875 56.83203125 C12.00550421 62.52354553 16.70715844 66.68797813 23 70 C23.763125 70.4125 24.52625 70.825 25.3125 71.25 C34.38518087 75.33270639 44.27898057 74.34275877 54 74 C58.76545956 82.55121804 62.46743808 90.81861109 64.9375 100.3125 C71.91814723 126.71431365 87.69368297 148.22263963 106 168 C126.87932282 190.74858652 126.87932282 190.74858652 126.31640625 207.47265625 C125.45348968 217.09257799 122.97053448 224.39450254 117 232 C116.38382813 232.83402344 115.76765625 233.66804687 115.1328125 234.52734375 C108.63136929 242.0647312 98.82608809 246.62075033 89.01171875 247.34765625 C79.12210822 247.81508112 72.13294788 246.72748065 64.125 240.5546875 C58.83491864 235.47715405 56.65390834 228.73651522 53.97558594 222.07836914 C48.80303716 209.35235584 41.33088412 200.10189871 28.59765625 194.28125 C21.39610813 191.37600158 14.78881601 191.50454402 7.125 191.8125 C-12.17452757 192.41499293 -29.0359467 190.54359091 -45 179 C-45.92941406 178.3296875 -46.85882812 177.659375 -47.81640625 176.96875 C-63.66209925 164.80348917 -73.16349781 146.66010181 -76 127 C-76.08794212 124.96886877 -76.13057752 122.93537668 -76.1328125 120.90234375 C-76.13410156 119.77119141 -76.13539063 118.64003906 -76.13671875 117.47460938 C-76.13285156 116.30736328 -76.12898437 115.14011719 -76.125 113.9375 C-76.12886719 112.76638672 -76.13273438 111.59527344 -76.13671875 110.38867188 C-76.13542969 109.25880859 -76.13414062 108.12894531 -76.1328125 106.96484375 C-76.13168457 105.9399585 -76.13055664 104.91507324 -76.12939453 103.85913086 C-76.00608583 101.13447391 -75.61326518 98.65311792 -75 96 C-76.79503184 96.20111561 -78.5862074 96.4368851 -80.375 96.6875 C-81.37273437 96.81511719 -82.37046875 96.94273437 -83.3984375 97.07421875 C-86.14224091 97.74552881 -86.14224091 97.74552881 -87.2890625 100.08203125 C-92.03695215 119.56924866 -89.74548626 141.07608261 -81 159 C-79.16343011 161.96731398 -79.16343011 161.96731398 -77 164 C-77 165.32 -77 166.64 -77 168 C-76.01 168.33 -75.02 168.66 -74 169 C-72.3515625 171.07421875 -72.3515625 171.07421875 -70.625 173.6875 C-70.00367188 174.59757813 -69.38234375 175.50765625 -68.7421875 176.4453125 C-68.16726563 177.28835938 -67.59234375 178.13140625 -67 179 C-64.59335752 182.27570782 -62.69281823 184.50394629 -59.38671875 186.87109375 C-52.23490363 192.03366228 -49.85583325 195.74846591 -47.9375 204.31640625 C-43.57169747 221.47037203 -30.57427869 236.18828169 -20 250 C-19.52626953 250.62229492 -19.05253906 251.24458984 -18.56445312 251.88574219 C-11.42848654 261.23856235 -3.7677933 269.89004948 4.3046875 278.44140625 C30.13844397 306.34370194 51.15061443 343.49524512 53 382 C52.01 382.33 51.02 382.66 50 383 C49.26676204 385.01508358 49.26676204 385.01508358 49 387 C62.22469666 380.1905356 73.74867092 371.85843265 84.3984375 361.5234375 C86.00422209 359.99598387 87.64712892 358.52458635 89.3125 357.0625 C96.70881785 350.53620924 102.83275557 343.60069382 108.71337891 335.69091797 C109.91334561 334.11388393 111.17920004 332.58759293 112.44921875 331.06640625 C124.45525696 316.50835992 133.27907748 298.58613597 140 281 C140.29068359 280.2481543 140.58136719 279.49630859 140.88085938 278.72167969 C159.64926465 229.19950159 155.72732506 175.50813893 134.59765625 127.46875 C129.97810157 117.28183993 124.78600998 107.58366085 118.8125 98.125 C118.2548999 97.24030029 117.6972998 96.35560059 117.12280273 95.4440918 C110.88230023 85.37437485 110.88230023 85.37437485 102 78 C103.49266742 74.20048294 105.55281135 72.1645138 109 70 C112.24554362 70.16753112 113.70214174 70.74393529 116.18017578 72.87426758 C121.6498578 79.15572878 126.42441754 85.64913669 130.875 92.6875 C131.56263428 93.77111816 132.25026855 94.85473633 132.95874023 95.97119141 C139.55946801 106.5751847 145.10605228 117.51576221 150 129 C150.34353516 129.80566406 150.68707031 130.61132812 151.04101562 131.44140625 C169.47900307 175.70735606 172.06199262 228.47459697 157 274 C156.71527832 274.88896973 156.43055664 275.77793945 156.13720703 276.69384766 C151.37716205 291.41604318 144.82424838 304.67497383 137 318 C136.48179687 318.88913086 135.96359375 319.77826172 135.4296875 320.69433594 C132.9270035 324.9379495 130.44851031 328.98538167 127.25 332.75 C124.57293324 335.96234679 122.12290249 339.24311258 119.78344727 342.70834351 C114.24469536 350.82888055 107.83012338 357.72782274 100.81982422 364.59179688 C98.96286929 366.41138351 97.12327136 368.24733779 95.28515625 370.0859375 C94.10772384 371.25356596 92.92937434 372.42027054 91.75 373.5859375 C91.20110107 374.13261078 90.65220215 374.67928406 90.08666992 375.24252319 C86.23240881 379 86.23240881 379 84 379 C84 379.66 84 380.32 84 381 C82.28514126 382.34540982 80.49725422 383.59773347 78.6875 384.8125 C77.49201714 385.61953937 76.29671572 386.42684755 75.1015625 387.234375 C74.44575195 387.67458984 73.78994141 388.11480469 73.11425781 388.56835938 C70.86158261 390.09372743 68.62896303 391.64556285 66.3984375 393.203125 C64.78647689 394.32294337 63.17449782 395.44273519 61.5625 396.5625 C60.82539795 397.07981689 60.0882959 397.59713379 59.32885742 398.13012695 C47.5937467 406.22832843 35.51864878 412.4372315 22.25 417.5625 C21.54022003 417.83969879 20.83044006 418.11689758 20.09915161 418.40249634 C-1.29376872 426.72446983 -23.77264924 434.0050296 -47 433 C-47 432.34 -47 431.68 -47 431 C-48.001521 431.01571045 -49.00304199 431.0314209 -50.03491211 431.04760742 C-53.83886295 431.10292391 -57.64278045 431.13670967 -61.44702148 431.16479492 C-63.07696558 431.17965472 -64.70687141 431.19994836 -66.33666992 431.22631836 C-80.79704324 431.45400562 -94.69581818 430.45917273 -108.265625 425.03125 C-111.44636719 423.8316558 -114.65657857 422.9507844 -117.9375 422.0625 C-128.32904242 419.14696899 -139.04468843 415.14942596 -148 409 C-148.495 407.515 -148.495 407.515 -149 406 C-149.57234375 405.86464844 -150.1446875 405.72929688 -150.734375 405.58984375 C-154.0035136 404.73874043 -155.77495892 402.82405069 -158.25 400.5625 C-159.14203125 399.75941406 -160.0340625 398.95632813 -160.953125 398.12890625 C-163 396 -163 396 -163 394 C-163.60231445 393.73574219 -164.20462891 393.47148438 -164.82519531 393.19921875 C-167.10095842 391.94433007 -168.21059528 390.84386773 -169.796875 388.8125 C-170.28027344 388.19632813 -170.76367188 387.58015625 -171.26171875 386.9453125 C-171.99841797 385.98238281 -171.99841797 385.98238281 -172.75 385 C-173.50990234 384.03707031 -173.50990234 384.03707031 -174.28515625 383.0546875 C-178 378.26844677 -178 378.26844677 -178 376 C-178.45375 375.566875 -178.9075 375.13375 -179.375 374.6875 C-181.34655114 372.64011997 -181.95103485 370.62241287 -183 368 C-183.44472656 367.59910156 -183.88945312 367.19820312 -184.34765625 366.78515625 C-198.23051373 351.78641897 -198.57009223 323.2133436 -198.10644531 304.16845703 C-197.8670957 299.29253213 -197.19755846 294.39511692 -195 290 C-195.495 288.515 -195.495 288.515 -196 287 C-195.37001963 285.31912316 -194.69854862 283.65355739 -194 282 C-193.66782636 280.23631613 -193.37700762 278.46441089 -193.125 276.6875 C-192.24856847 271.47131879 -190.59742427 267.58878288 -188 263 C-187.34 263 -186.68 263 -186 263 C-186.226875 262.29875 -186.45375 261.5975 -186.6875 260.875 C-187.10366449 257.04628671 -185.89311135 255.31294486 -184 252 C-181.64551343 247.49576482 -179.79696396 242.9416509 -178.0625 238.171875 C-177 236 -177 236 -174 234 C-172.43366586 235.56633414 -172.87238171 237.11542874 -172.859375 239.29296875 C-172.65430277 251.25482178 -171.65477596 262.88753106 -169.6875 274.6875 C-169.48672852 275.91428467 -169.28595703 277.14106934 -169.07910156 278.4050293 C-167.01877728 290.20238228 -163.60205282 301.28396647 -158.8125 312.25 C-158.42521729 313.14259521 -158.03793457 314.03519043 -157.63891602 314.95483398 C-149.7080991 332.95408957 -139.79648954 348.97997543 -127.41015625 364.25195312 C-126.03829504 365.952529 -124.69054046 367.67017012 -123.34375 369.390625 C-117.24615248 377.03990862 -110.53845249 383.02522487 -102.64746094 388.78613281 C-101.15185963 389.88810816 -99.68718946 391.03175814 -98.2265625 392.1796875 C-80.04119094 406.21464393 -52.31716746 418.42798028 -29 416 C-22.60385693 414.96828304 -16.29890004 413.50421494 -10 412 C-9.67 410.35 -9.34 408.7 -9 407 C-9.68513672 406.88930176 -10.37027344 406.77860352 -11.07617188 406.66455078 C-14.21802829 406.15487421 -17.35900813 405.63997657 -20.5 405.125 C-21.57765625 404.95097656 -22.6553125 404.77695312 -23.765625 404.59765625 C-29.59507488 403.63792975 -35.29476238 402.53709072 -41 401 C-41 400.34 -41 399.68 -41 399 C-41.95712891 398.83564453 -41.95712891 398.83564453 -42.93359375 398.66796875 C-43.75988281 398.50941406 -44.58617187 398.35085938 -45.4375 398.1875 C-46.67306641 397.96126953 -46.67306641 397.96126953 -47.93359375 397.73046875 C-48.61550781 397.48941406 -49.29742188 397.24835938 -50 397 C-50.33 396.01 -50.66 395.02 -51 394 C-54.27434438 393.48637735 -57.43145049 393 -60.75 393 C-63 393 -63 393 -66 392 C-66.97710938 391.72542969 -67.95421875 391.45085937 -68.9609375 391.16796875 C-70.08757812 390.84441406 -71.21421875 390.52085937 -72.375 390.1875 C-73.49648438 389.87167969 -74.61796875 389.55585937 -75.7734375 389.23046875 C-79.15223698 387.94194352 -81.26103253 386.32012193 -84 384 C-84.99 383.67 -85.98 383.34 -87 383 C-87 382.34 -87 381.68 -87 381 C-88.36125 380.62875 -88.36125 380.62875 -89.75 380.25 C-93.12496123 378.95193799 -94.74102121 377.78028159 -97 375 C-97 374.34 -97 373.68 -97 373 C-97.86625 372.62875 -97.86625 372.62875 -98.75 372.25 C-101.32939979 370.81700012 -103.06121592 369.21575324 -105 367 C-105 366.34 -105 365.68 -105 365 C-105.58265625 364.7421875 -106.1653125 364.484375 -106.765625 364.21875 C-118.69138104 357.71379216 -128.17755179 341.82999917 -134 330 C-134.31203369 329.36658691 -134.62406738 328.73317383 -134.94555664 328.08056641 C-135.99255464 325.93251128 -137.0280112 323.77910549 -138.0625 321.625 C-138.60874023 320.51125 -138.60874023 320.51125 -139.16601562 319.375 C-141.17106657 315.17958841 -142.23223972 311.60656169 -143 307 C-143.7108374 306.29145874 -143.7108374 306.29145874 -144.43603516 305.56860352 C-146.18128576 303.81817655 -146.7132793 302.58868199 -147.46484375 300.25390625 C-147.7057373 299.50842529 -147.94663086 298.76294434 -148.19482422 297.99487305 C-148.43990723 297.19218994 -148.68499023 296.38950684 -148.9375 295.5625 C-149.19547363 294.73081299 -149.45344727 293.89912598 -149.71923828 293.04223633 C-151.58835118 286.81903249 -153.09045084 280.55571026 -154.375 274.1875 C-154.54249756 273.35871338 -154.70999512 272.52992676 -154.88256836 271.67602539 C-155.70187258 267.36949413 -156.06574609 263.39841339 -156 259 C-156.495 257.515 -156.495 257.515 -157 256 C-158.56352633 243.27945863 -158.25257982 230.39937368 -157.625 217.625 C-157.59422363 216.89313477 -157.56344727 216.16126953 -157.53173828 215.40722656 C-157.23569578 210.23569578 -157.23569578 210.23569578 -155 208 C-155.020625 206.9275 -155.04125 205.855 -155.0625 204.75 C-154.98302773 199.98166386 -153.68542262 196.82025643 -150.4375 193.3125 C-149.963125 192.879375 -149.48875 192.44625 -149 192 C-146.88498156 188.82747234 -146.77673033 186.91978653 -146.38916016 183.22900391 C-145.69513983 179.25384358 -143.94117625 175.79351668 -142.1875 172.1875 C-141.84396484 171.43791016 -141.50042969 170.68832031 -141.14648438 169.91601562 C-139.25337098 165.94154304 -137.79178389 163.43041654 -134 161 C-133.60828247 159.34608154 -133.27942455 157.67654729 -133 156 C-132.505 155.195625 -132.01 154.39125 -131.5 153.5625 C-129.80830007 150.67251261 -129.51008183 148.27909746 -129 145 C-128.34 144.34 -127.68 143.68 -127 143 C-126.855625 142.401875 -126.71125 141.80375 -126.5625 141.1875 C-126 139 -126 139 -124.6875 136.875 C-122.71098542 133.50760478 -121.41424466 130.05768661 -120.0625 126.40234375 C-118.96705865 123.92551864 -117.79587988 122.02504163 -116 120 C-115.34 120 -114.68 120 -114 120 C-114.33 119.01 -114.66 118.02 -115 117 C-114.07421875 115.38671875 -114.07421875 115.38671875 -112.6875 113.6875 C-110.30854567 110.55937221 -109.05675932 107.82059139 -108 104 C-107.33333333 102 -106.66666667 100 -106 98 C-105.34 98 -104.68 98 -104 98 C-103.5978125 96.6078125 -103.5978125 96.6078125 -103.1875 95.1875 C-102.03110437 92.08349067 -101.28104551 91.18600194 -99 89 C-98.32558869 87.3364521 -97.6599679 85.66933058 -97 84 C-94.69051095 80.07386862 -93.17345992 77.8084993 -89 76 C-88.01 74.515 -88.01 74.515 -87 73 C-86.34 73 -85.68 73 -85 73 C-84.74605469 72.43023437 -84.49210937 71.86046875 -84.23046875 71.2734375 C-80.4376165 64.26569145 -72.72125484 55.57375161 -65 53 C-63.62665383 50.71108972 -62.84749184 48.54247553 -62 46 C-58.60551775 42.31456212 -54.87672906 39.15547714 -51 36 C-50.03874097 37.41468311 -49.08111675 38.8318364 -48.125 40.25 C-47.59132813 41.03890625 -47.05765625 41.8278125 -46.5078125 42.640625 C-45.18177985 44.71555692 -44.05071825 46.77614972 -43 49 C-45.475 49.495 -45.475 49.495 -48 50 C-31.77789743 51.14126193 -31.77789743 51.14126193 -17.87109375 44.08203125 C-12.98267046 38.9955503 -9.79713222 33.44147276 -7 27 C-5.7922442 30.62326739 -6.45688872 31.64146369 -8 35 C-7.34 35 -6.68 35 -6 35 C-5.89042969 34.39671875 -5.78085937 33.7934375 -5.66796875 33.171875 C-5.50941406 32.37265625 -5.35085938 31.5734375 -5.1875 30.75 C-4.96126953 29.56664062 -4.96126953 29.56664062 -4.73046875 28.359375 C-4 26 -4 26 -2.43359375 24.23046875 C-0.26283826 20.85308078 -0.72291387 17.43408377 -0.875 13.5625 C-1.14187313 4.41817065 -1.14187313 4.41817065 0 0 Z " fill="#DCDDDC" transform="translate(593,273)"/>
<path d="M0 0 C0.99 0.99 0.99 0.99 2 2 C1.120988 4.22209867 0.23455891 6.44089874 -0.65893555 8.65722656 C-1.56425567 10.91385192 -2.45795927 13.17516751 -3.34082031 15.44067383 C-8.08604087 27.44988 -13.7511545 38.9610024 -19.55004883 50.49121094 C-21.17580251 53.72672013 -22.78870118 56.96840399 -24.40039062 60.2109375 C-32.88384357 77.19544592 -42.17762314 93.6100315 -51.88061523 109.92016602 C-74.1860165 147.70354901 -90.86087312 193.26980926 -80.29296875 237.45703125 C-78.88411881 242.71576324 -77.0262984 247.81682517 -74.84326172 252.8034668 C-73.08444566 256.95148093 -72.85998921 259.63995872 -74 264 C-76.05258824 261.94741176 -78.10232141 259.89466913 -80.125 257.8125 C-81.87919869 255.93535679 -81.87919869 255.93535679 -84 255 C-84 254.34 -84 253.68 -84 253 C-84.66 253 -85.32 253 -86 253 C-86 252.01 -86 251.02 -86 250 C-86.5775 249.77570313 -87.155 249.55140625 -87.75 249.3203125 C-94.62151151 245.28807137 -98.7501549 236.06668445 -102 229 C-102.56267578 227.93458984 -102.56267578 227.93458984 -103.13671875 226.84765625 C-105.87452004 221.65706137 -108.11569405 216.35747363 -110.1875 210.875 C-110.43741699 210.21822266 -110.68733398 209.56144531 -110.94482422 208.88476562 C-122.6155895 177.33193364 -115.98838068 139.57809171 -102.625 109.625 C-92.44056222 87.51778678 -78.07273547 66.47808234 -60 50 C-59.34 50 -58.68 50 -58 50 C-58 49.34 -58 48.68 -58 48 C-56.6015625 46.58984375 -56.6015625 46.58984375 -54.625 44.9375 C-51.37846712 42.18338657 -48.20276577 39.3748912 -45.0625 36.5 C-32.6174719 25.30139228 -32.6174719 25.30139228 -29.11328125 24.6484375 C-25.72860109 23.60988499 -23.54555727 21.04295839 -21.0625 18.625 C-15.63220216 13.37912737 -15.63220216 13.37912737 -12.453125 11.47265625 C-9.38930427 9.63338808 -7.17724847 7.36864176 -4.6875 4.8125 C-3.80449219 3.91144531 -2.92148437 3.01039063 -2.01171875 2.08203125 C-1.01591797 1.05142578 -1.01591797 1.05142578 0 0 Z " fill="#E1E2DF" transform="translate(462,382)"/>
<path d="M0 0 C-0.66 0.99 -1.32 1.98 -2 3 C-2.45601261 5.50896686 -2.45601261 5.50896686 -2.625 8.1875 C-2.69976563 9.08855469 -2.77453125 9.98960937 -2.8515625 10.91796875 C-2.92503906 11.94857422 -2.92503906 11.94857422 -3 13 C-3.66 13 -4.32 13 -5 13 C-5.0731543 13.72292236 -5.14630859 14.44584473 -5.22167969 15.19067383 C-6.21744498 18.78486179 -7.82022849 20.32217425 -10.453125 22.94921875 C-11.83745728 24.33814331 -11.83745728 24.33814331 -13.24975586 25.75512695 C-14.24882736 26.73361683 -15.24892882 27.71105606 -16.25 28.6875 C-16.75242218 29.18277191 -17.25484436 29.67804382 -17.77249146 30.18832397 C-25.08894364 37.39566488 -32.40859786 44.3018464 -41 50 C-41.82612793 50.55204102 -41.82612793 50.55204102 -42.66894531 51.11523438 C-75.53870596 72.78315717 -116.90224611 83.14898635 -155.9375 75.375 C-173.61751242 71.40385792 -187.78565014 63.41589972 -201 51 C-197.37750399 49.74605907 -194.72655315 50.36077373 -191 51 C-166.73839304 51.13448784 -146.96746282 41.63081803 -126.78076172 29.09521484 C-123.8000835 27.2620201 -120.78055784 25.49915574 -117.75 23.75 C-116.71359375 23.14671875 -115.6771875 22.5434375 -114.609375 21.921875 C-78.78052535 2.24857938 -39.90661724 -1.16703515 0 0 Z " fill="#F6F6F3" transform="translate(529,289)"/>
<path d="M0 0 C-2.05412971 5.2286938 -6.04688465 7.60908084 -10.9375 9.9375 C-16.00479517 12.370568 -19.84011816 15.26017725 -23 20 C-23.99 20.66 -24.98 21.32 -26 22 C-27.13086413 22.99721342 -28.24120117 24.01794227 -29.3359375 25.0546875 C-29.98183838 25.66368896 -30.62773926 26.27269043 -31.29321289 26.90014648 C-31.98020264 27.55184814 -32.66719238 28.2035498 -33.375 28.875 C-38.02191291 33.26548056 -42.68073027 37.63693694 -47.4128418 41.93554688 C-51.90491954 46.02541845 -56.27760907 50.12198507 -60.1640625 54.8046875 C-61.57505672 56.49187633 -63.03868332 58.13515546 -64.5234375 59.7578125 C-88.49832555 86.19324863 -102.46391757 115.81701633 -111 150 C-111.20447754 150.81629883 -111.40895508 151.63259766 -111.61962891 152.47363281 C-112.08070705 154.31551654 -112.54051817 156.1577174 -113 158 C-113.99 158 -114.98 158 -116 158 C-116.3403125 156.081875 -116.3403125 156.081875 -116.6875 154.125 C-117.85114094 148.24819466 -119.47583417 142.52257413 -121.1472168 136.77392578 C-124.04416481 126.66974592 -125.35032385 117.38550914 -125.31567383 106.82495117 C-125.31253251 104.83311491 -125.33678786 102.84129693 -125.36132812 100.84960938 C-125.3728959 77.42487079 -117.49708809 55.71095782 -102 38 C-101.25363281 37.1440625 -100.50726563 36.288125 -99.73828125 35.40625 C-75.83442187 8.45860547 -75.83442187 8.45860547 -62 5 C-58.52355245 5.13535349 -55.17681288 5.70104575 -51.80786133 6.55688477 C-48.40101734 7.09452687 -45.44320402 6.82643233 -42.01171875 6.4765625 C-41.01867485 6.37811539 -41.01867485 6.37811539 -40.00556946 6.27767944 C-37.89878136 6.06702698 -35.79321762 5.84607018 -33.6875 5.625 C-32.28457114 5.48371879 -30.88157664 5.34308773 -29.47851562 5.203125 C-25.65055742 4.81841056 -21.8251052 4.41217878 -18 4 C-17.13890625 3.91081299 -16.2778125 3.82162598 -15.390625 3.72973633 C-11.92791031 3.34404988 -8.84050528 2.79588692 -5.625 1.4375 C-2 0 -2 0 0 0 Z " fill="#D7D7D3" transform="translate(444,376)"/>
<path d="M0 0 C-0.73009407 5.33748381 -1.61286711 10.63500441 -2.5625 15.9375 C-2.77036133 17.10635742 -2.77036133 17.10635742 -2.98242188 18.29882812 C-3.32056157 20.1994064 -3.6601317 22.09973008 -4 24 C-5.38445312 24.05160278 -5.38445312 24.05160278 -6.796875 24.10424805 C-47.13738449 25.71119151 -83.10015624 32.19650658 -120.69364929 47.27859497 C-122.6328667 48.05625583 -124.57329339 48.83083393 -126.51391602 49.60498047 C-129.01445942 50.60254554 -131.50783559 51.61396135 -133.99975586 52.63330078 C-135.69563843 53.31368408 -135.69563843 53.31368408 -137.42578125 54.0078125 C-138.43036377 54.41660645 -139.43494629 54.82540039 -140.4699707 55.24658203 C-143 56 -143 56 -146 55 C-144.71416016 53.7315625 -144.71416016 53.7315625 -143.40234375 52.4375 C-136.21956839 45.40445467 -136.21956839 45.40445467 -129.5 37.9375 C-126.31395954 34.18684478 -122.78370576 30.85043246 -119.1875 27.5 C-118.61128906 26.95851318 -118.03507812 26.41702637 -117.44140625 25.85913086 C-113.24342791 22 -113.24342791 22 -111 22 C-111 21.34 -111 20.68 -111 20 C-108.69916569 18.32638781 -106.41623001 16.80424007 -104 15.3125 C-103.28247559 14.86696777 -102.56495117 14.42143555 -101.82568359 13.96240234 C-95.16217867 9.9253672 -88.25727969 6.70013118 -81.02758789 3.81835938 C-79.56206555 3.22685656 -78.10656099 2.61032536 -76.65795898 1.97851562 C-70.74348242 -0.54197287 -65.18335693 -1.95613287 -58.8125 -2.75 C-57.87196777 -2.87141357 -56.93143555 -2.99282715 -55.96240234 -3.11791992 C-37.55156649 -5.28255651 -17.91828213 -5.22616562 0 0 Z " fill="#F8F9FA" transform="translate(530,249)"/>
<path d="M0 0 C8.66666667 0 17.33333333 0 26 0 C26 0.66 26 1.32 26 2 C28.64 1.67 31.28 1.34 34 1 C35.52295235 4.04590469 35.42743134 7.27519566 35.625 10.625 C35.67003662 11.37322021 35.71507324 12.12144043 35.76147461 12.89233398 C36.15346332 20.67098733 35.62918198 28.24008887 35 36 C40.94 36 46.88 36 53 36 C53 41.94 53 47.88 53 54 C57.95 54 62.9 54 68 54 C68.89898617 60.06815666 69.08522169 65.86403867 69 72 C63.39 72 57.78 72 52 72 C51.67 66.39 51.34 60.78 51 55 C45.72 55 40.44 55 35 55 C35 60.61 35 66.22 35 72 C29.39 72 23.78 72 18 72 C17.67 66.39 17.34 60.78 17 55 C14.62369792 55.03255208 12.24739583 55.06510417 9.87109375 55.09765625 C6.56236204 54.98511435 3.27737148 54.46819593 0 54 C0 48.06 0 42.12 0 36 C-5.28 36 -10.56 36 -16 36 C-17.15485075 27.91604478 -17.15485075 27.91604478 -17.1875 24.1875 C-17.20167969 23.43855469 -17.21585938 22.68960938 -17.23046875 21.91796875 C-17 20 -17 20 -15 18 C-12.41048555 17.85452166 -9.95814609 17.81350948 -7.375 17.875 C-3.724375 17.936875 -3.724375 17.936875 0 18 C0 12.06 0 6.12 0 0 Z " fill="#B5B7B6" transform="translate(550,111)"/>
<path d="M0 0 C0.60416667 1.8125 1.20833333 3.625 1.8125 5.4375 C2.18117188 6.53964844 2.54984375 7.64179688 2.9296875 8.77734375 C3.54875971 10.64133856 4.16165308 12.50745735 4.7578125 14.37890625 C6.50311764 19.82546193 8.64886365 25.04963845 10.9140625 30.30078125 C15.40909868 41.47369492 14.8857063 58.63045755 10.3203125 69.62890625 C6.42452135 76.6251939 0.40866902 82.72703901 -7 86 C-9.67498233 85.84972009 -10.66150866 85.34887982 -12.52734375 83.42578125 C-22.65401943 68.24979359 -24.74310185 51.28064176 -22.57421875 33.51171875 C-20.68179887 24.93197462 -11.7714663 0 0 0 Z " fill="#F9FAFA" transform="translate(565,223)"/>
<path d="M0 0 C5.61 0.33 11.22 0.66 17 1 C17 6.94 17 12.88 17 19 C11.72 19.33 6.44 19.66 1 20 C1.03950724 24.84649196 1.03950724 24.84649196 1.09008789 29.69287109 C1.11111111 34.77777778 1.11111111 34.77777778 0 37 C5.61 37 11.22 37 17 37 C17.185625 39.59875 17.37125 42.1975 17.5625 44.875 C17.62381104 45.69210449 17.68512207 46.50920898 17.74829102 47.35107422 C18.11111111 52.77777778 18.11111111 52.77777778 17 55 C11.06 55 5.12 55 -1 55 C-0.67 49.39 -0.34 43.78 0 38 C-5.28 38 -10.56 38 -16 38 C-16 43.61 -16 49.22 -16 55 C-19.0957232 56.5478616 -22.26504398 55.83182026 -25.625 55.5625 C-29.275625 55.2840625 -29.275625 55.2840625 -33 55 C-33 49.06 -33 43.12 -33 37 C-27.72 37 -22.44 37 -17 37 C-17.33 30.73 -17.66 24.46 -18 18 C-17.34 17.67 -16.68 17.34 -16 17 C-16 17.66 -16 18.32 -16 19 C-10.72 19 -5.44 19 0 19 C0 12.73 0 6.46 0 0 Z " fill="#B9BBBA" transform="translate(222,128)"/>
<path d="M0 0 C2.82640356 2.82640356 2.5996488 5.11465153 3.0625 9.0625 C3.14556396 9.76624756 3.22862793 10.46999512 3.31420898 11.19506836 C3.98483982 17.16744149 4.38263131 23.14795322 4.65844727 29.15063477 C4.81571485 32.46129848 5.09684393 35.38821418 5.90234375 38.6171875 C6 42 6 42 3.5 45.09765625 C2.35314549 46.10886131 1.1851421 47.09645179 0 48.0625 C-0.59925293 48.5790918 -1.19850586 49.09568359 -1.81591797 49.62792969 C-2.99928861 50.64481365 -4.19037192 51.65280332 -5.38964844 52.65087891 C-7.35270704 54.29549107 -9.23234224 56.02530537 -11.125 57.75 C-14 60 -14 60 -17 60 C-17.48091058 57.79204578 -17.95965179 55.583619 -18.4375 53.375 C-18.70433594 52.14523437 -18.97117187 50.91546875 -19.24609375 49.6484375 C-20.31754836 44.4632634 -21.11712054 39.45936841 -21.31640625 34.1640625 C-21.35830078 33.10058594 -21.40019531 32.03710938 -21.44335938 30.94140625 C-21.48267578 29.84699219 -21.52199219 28.75257813 -21.5625 27.625 C-21.60568359 26.50738281 -21.64886719 25.38976562 -21.69335938 24.23828125 C-21.79897411 21.49229801 -21.9010797 18.74623119 -22 16 C-21.278125 15.5875 -20.55625 15.175 -19.8125 14.75 C-17.01521614 13.00946782 -14.56947782 11.05715862 -12 9 C-9.13732637 7.1463015 -6.23654479 5.36676138 -3.328125 3.5859375 C-0.90196094 2.21011532 -0.90196094 2.21011532 0 0 Z " fill="#F2F3F4" transform="translate(668,256)"/>
<path d="M0 0 C0 0.66 0 1.32 0 2 C0.99 1.67 1.98 1.34 3 1 C7.33671303 0.86498403 11.66011734 0.95703086 16 1 C16.495 9.415 16.495 9.415 17 18 C21.95 18.33 26.9 18.66 32 19 C31.98839844 17.85660156 31.97679687 16.71320313 31.96484375 15.53515625 C31.95546712 14.04427246 31.94636679 12.55338691 31.9375 11.0625 C31.92912109 10.30775391 31.92074219 9.55300781 31.91210938 8.77539062 C31.90347559 6.85005687 31.94775667 4.92464419 32 3 C34.04238092 0.95761908 38.23680754 1.58491545 41.0625 1.4375 C43.681875 1.293125 46.30125 1.14875 49 1 C49 6.94 49 12.88 49 19 C43.72 19 38.44 19 33 19 C33 24.94 33 30.88 33 37 C27.39 37 21.78 37 16 37 C16 31.06 16 25.12 16 19 C10.77936725 19.03957157 10.77936725 19.03957157 5.55883789 19.09008789 C3.70566241 19.09723945 1.85250692 19.0502852 0 19 C-1 18 -1 18 -1.09765625 14.40234375 C-1.0909822 12.91403133 -1.07902183 11.42573568 -1.0625 9.9375 C-1.05798828 9.17888672 -1.05347656 8.42027344 -1.04882812 7.63867188 C-1.0370068 5.75908129 -1.01907078 3.87953101 -1 2 C-2.98 2 -4.96 2 -7 2 C-7 1.67 -7 1.34 -7 1 C-2.25 0 -2.25 0 0 0 Z " fill="#BABCBC" transform="translate(122,128)"/>
<path d="M0 0 C0.33 0 0.66 0 1 0 C1 1.65 1 3.3 1 5 C8.92 4.505 8.92 4.505 17 4 C17.33 2.68 17.66 1.36 18 0 C18.33 1.65 18.66 3.3 19 5 C23.62 5 28.24 5 33 5 C33.81235475 9.06177373 34.10732417 12.23350092 34.0625 16.3125 C34.05347656 17.38113281 34.04445313 18.44976562 34.03515625 19.55078125 C34.02355469 20.35902344 34.01195312 21.16726562 34 22 C34.99 22.33 35.98 22.66 37 23 C36.01 23 35.02 23 34 23 C34 28.94 34 34.88 34 41 C28.72 40.67 23.44 40.34 18 40 C17.34 34.72 16.68 29.44 16 24 C12.8753125 23.814375 12.8753125 23.814375 9.6875 23.625 C3.375 23.25 3.375 23.25 0 21 C-0.34057617 18.84521484 -0.34057617 18.84521484 -0.29296875 16.2109375 C-0.2784668 14.79941406 -0.2784668 14.79941406 -0.26367188 13.359375 C-0.23853516 12.37453125 -0.21339844 11.3896875 -0.1875 10.375 C-0.17396484 9.38242188 -0.16042969 8.38984375 -0.14648438 7.3671875 C-0.11105743 4.91091928 -0.06166196 2.45572715 0 0 Z " fill="#B5B7B7" transform="translate(668,89)"/>
<path d="M0 0 C3.22751678 1.3857595 4.46209439 3.74333774 6.44140625 6.6015625 C11.11286377 13.11445794 15.82356011 19.44841318 24.12890625 20.9140625 C29.32943888 20.82311519 33.49548516 20.30424167 38.12890625 17.9140625 C42.05346734 17.9140625 43.12022377 18.90575752 46.00390625 21.6640625 C48.12890625 24.9140625 48.12890625 24.9140625 48.37890625 27.5390625 C45.77326691 32.48977724 40.22972106 34.00017459 35.19140625 35.6640625 C26.36859144 38.0896702 19.18605932 36.88634579 11.02734375 32.8828125 C3.09776185 28.35162284 -2.15296387 21.97035598 -5.2109375 13.37890625 C-6.22654995 9.58688579 -6.42000104 6.82502697 -5.87109375 2.9140625 C-3.95073337 0.65078062 -2.99072252 -0.13736095 0 0 Z " fill="#63666A" transform="translate(588.87109375,363.0859375)"/>
<path d="M0 0 C0.41134078 4.15829542 0.82013704 8.31683172 1.22680664 12.47558594 C1.36481827 13.88352842 1.5034663 15.29140869 1.64282227 16.69921875 C2.57537423 26.12573681 3.37728668 35.54700767 4 45 C2.68 43.35 1.36 41.7 0 40 C-3.26460973 41.80412643 -4.88929795 42.83394693 -7 46 C-10.465 44.515 -10.465 44.515 -14 43 C-14 42.34 -14 41.68 -14 41 C-14.5775 40.9175 -15.155 40.835 -15.75 40.75 C-18.73813029 39.75395657 -19.98227942 38.41231513 -22 36 C-22.828125 33.23046875 -22.828125 33.23046875 -23.25 30.1875 C-23.39953125 29.19105469 -23.5490625 28.19460938 -23.703125 27.16796875 C-23.80109375 26.12253906 -23.8990625 25.07710938 -24 24 C-24.15082031 22.83210938 -24.30164063 21.66421875 -24.45703125 20.4609375 C-23.96968319 16.77042143 -23.81900019 16.39248717 -21.18359375 14.12109375 C-19.95115171 13.20429538 -18.70136271 12.31047405 -17.4375 11.4375 C-16.14751131 10.49345178 -14.85843832 9.54815096 -13.5703125 8.6015625 C-12.9505957 8.15586914 -12.33087891 7.71017578 -11.69238281 7.25097656 C-9.62147199 5.72019944 -7.71311414 4.04855881 -5.8125 2.3125 C-3 0 -3 0 0 0 Z " fill="#F5F6F7" transform="translate(634,285)"/>
<path d="M0 0 C0.99 0.33 1.98 0.66 3 1 C4.15300458 6.9400325 4.5978878 12.90947259 5 18.9375 C5.10183594 19.99646484 5.20367188 21.05542969 5.30859375 22.14648438 C5.77789919 29.82298043 5.77789919 29.82298043 3.5715332 33.16137695 C1.80000429 34.9229972 -0.03323836 36.46261685 -2 38 C-3.28937332 39.4208941 -4.56502762 40.85468099 -5.8125 42.3125 C-7.49995323 44.27797756 -9.16731343 46.16731343 -11 48 C-12.32 48 -13.64 48 -15 48 C-17.02501566 40.18071685 -17.62283695 32.4844571 -18.125 24.4375 C-18.21136719 23.14263672 -18.29773438 21.84777344 -18.38671875 20.51367188 C-18.59733017 17.34279991 -18.80159213 14.17165499 -19 11 C-18.18088135 10.60095459 -17.3617627 10.20190918 -16.51782227 9.79077148 C-15.44072998 9.26040283 -14.3636377 8.73003418 -13.25390625 8.18359375 C-11.65397827 7.39940063 -11.65397827 7.39940063 -10.02172852 6.59936523 C-7.4503479 5.23836383 -5.23781567 3.82645509 -2.9375 2.0625 C-1.968125 1.381875 -0.99875 0.70125 0 0 Z " fill="#F6F7F9" transform="translate(700,235)"/>
<path d="M0 0 C0.66 0.66 1.32 1.32 2 2 C1.80394374 7.55042046 0.04095696 11.30579824 -3.1875 15.6875 C-3.83440796 16.58227051 -3.83440796 16.58227051 -4.49438477 17.49511719 C-10.34702453 25.22768338 -17.95302886 31.63535257 -26 37 C-27.95066311 35.04933689 -27.67906538 31.60629971 -28 29 C-28.15984375 27.71222656 -28.3196875 26.42445313 -28.484375 25.09765625 C-29.3440729 14.63416057 -29.3440729 14.63416057 -25.828125 10.359375 C-22.97824746 8.29675645 -20.11788942 6.62458449 -17 5 C-15.49319426 4.03133917 -13.99216535 3.05356505 -12.5 2.0625 C-8.04948521 -0.71907174 -5.18292033 -1.21302391 0 0 Z " fill="#F8F9FB" transform="translate(742,213)"/>
<path d="M0 0 C1.58206057 0.00667536 3.16410534 0.0186375 4.74609375 0.03515625 C5.55240234 0.03966797 6.35871094 0.04417969 7.18945312 0.04882812 C9.18753131 0.06065107 11.18557158 0.07858711 13.18359375 0.09765625 C12.52359375 0.42765625 11.86359375 0.75765625 11.18359375 1.09765625 C11.67859375 10.00765625 11.67859375 10.00765625 12.18359375 19.09765625 C0.96233293 19.22373783 0.96233293 19.22373783 -3.09765625 18.56640625 C-7.72776826 17.98277869 -12.1102645 18.22793432 -16.75390625 18.53515625 C-18.06584961 18.6134668 -18.06584961 18.6134668 -19.40429688 18.69335938 C-21.54205257 18.82185835 -23.67929294 18.95888266 -25.81640625 19.09765625 C-25.15640625 18.43765625 -24.49640625 17.77765625 -23.81640625 17.09765625 C-23.38956549 14.8679337 -23.38956549 14.8679337 -23.25390625 12.34765625 C-22.96832528 8.54768095 -22.48043487 4.85133869 -21.81640625 1.09765625 C-16.14973958 1.09765625 -10.48307292 1.09765625 -4.81640625 1.09765625 C-3.81640625 0.09765625 -3.81640625 0.09765625 0 0 Z " fill="#B5B8B7" transform="translate(93.81640625,128.90234375)"/>
<path d="M0 0 C1.39456452 0.00667256 2.78911118 0.01863093 4.18359375 0.03515625 C4.89451172 0.03966797 5.60542969 0.04417969 6.33789062 0.04882812 C8.09899388 0.06064761 9.86005411 0.07858362 11.62109375 0.09765625 C12.00922948 2.76608937 12.33177954 5.41816157 12.62109375 8.09765625 C12.79318359 9.23074219 12.79318359 9.23074219 12.96875 10.38671875 C13.29569139 13.84635313 13.34612914 16.12351652 11.22265625 18.9765625 C5.96366965 23.7740462 -0.29821519 27.4420027 -6.37890625 31.09765625 C-7.46171875 31.75507812 -7.46171875 31.75507812 -8.56640625 32.42578125 C-13.08225132 35.09765625 -13.08225132 35.09765625 -15.37890625 35.09765625 C-15.00390625 33.16015625 -15.00390625 33.16015625 -14.37890625 31.09765625 C-13.71890625 30.76765625 -13.05890625 30.43765625 -12.37890625 30.09765625 C-12.37890625 26.13765625 -12.37890625 22.17765625 -12.37890625 18.09765625 C-10.06890625 18.42765625 -7.75890625 18.75765625 -5.37890625 19.09765625 C-5.28802734 17.16599609 -5.28802734 17.16599609 -5.1953125 15.1953125 C-5.11092378 13.51691466 -5.02627495 11.83852989 -4.94140625 10.16015625 C-4.88243164 8.88495117 -4.88243164 8.88495117 -4.82226562 7.58398438 C-4.78037109 6.77509766 -4.73847656 5.96621094 -4.6953125 5.1328125 C-4.65865479 4.38394775 -4.62199707 3.63508301 -4.58422852 2.86352539 C-4.20557291 -0.3930929 -3.39640271 0.09816193 0 0 Z " fill="#9D9F9D" transform="translate(657.37890625,624.90234375)"/>
<path d="M0 0 C1.1508153 3.39416543 2.2947661 6.79060608 3.4375 10.1875 C3.92573242 11.62706055 3.92573242 11.62706055 4.42382812 13.09570312 C4.73642578 14.02705078 5.04902344 14.95839844 5.37109375 15.91796875 C5.65911865 16.77156982 5.94714355 17.6251709 6.24389648 18.50463867 C7.74010881 23.44257414 8.10127644 27.83490157 8 33 C6.37276701 32.54965877 4.74826336 32.08944646 3.125 31.625 C1.76761719 31.24214844 1.76761719 31.24214844 0.3828125 30.8515625 C-2 30 -2 30 -4 28 C-5.11375 27.5875 -6.2275 27.175 -7.375 26.75 C-11.36922771 25.09894136 -13.05138923 22.89722155 -15 19 C-15.625 16.5625 -15.625 16.5625 -15 14 C-13.21397343 11.46164033 -11.11316009 9.26649597 -9 7 C-7.45668525 5.10138977 -5.92043214 3.19778685 -4.39453125 1.28515625 C-3 0 -3 0 0 0 Z " fill="#C5C8C9" transform="translate(602,230)"/>
<path d="M0 0 C1.47668858 0.0133035 2.95331108 0.03716415 4.4296875 0.0703125 C5.18378906 0.07933594 5.93789063 0.08835937 6.71484375 0.09765625 C8.57826004 0.1212438 10.44151343 0.15711531 12.3046875 0.1953125 C12.52588689 2.81981336 12.73215419 5.44401736 12.9296875 8.0703125 C12.99414062 8.81667969 13.05859375 9.56304688 13.125 10.33203125 C13.26556115 12.2823172 13.29228599 14.24000717 13.3046875 16.1953125 C11.3046875 18.1953125 11.3046875 18.1953125 7.609375 18.390625 C6.13267082 18.3791834 4.65606949 18.35321157 3.1796875 18.3203125 C0.5809375 18.2790625 -2.0178125 18.2378125 -4.6953125 18.1953125 C-4.6953125 24.1353125 -4.6953125 30.0753125 -4.6953125 36.1953125 C-5.0253125 36.1953125 -5.3553125 36.1953125 -5.6953125 36.1953125 C-5.74468133 31.38982653 -5.78101693 26.58448756 -5.80517578 21.77880859 C-5.81524504 20.14336578 -5.82890131 18.50794101 -5.84619141 16.87255859 C-5.87039955 14.5243688 -5.88178607 12.17641662 -5.890625 9.828125 C-5.90610886 8.72804611 -5.90610886 8.72804611 -5.92190552 7.60574341 C-5.92230618 5.80068553 -5.81744005 3.9962342 -5.6953125 2.1953125 C-3.6953125 0.1953125 -3.6953125 0.1953125 0 0 Z " fill="#B9BBBB" transform="translate(434.6953125,900.8046875)"/>
<path d="M0 0 C0.33 0 0.66 0 1 0 C1.12375 0.94875 1.2475 1.8975 1.375 2.875 C1.71687177 6.08667191 1.71687177 6.08667191 4 8 C3.67 8.33 3.34 8.66 3 9 C2.76284045 11.86055414 2.57809383 14.69727656 2.4375 17.5625 C2.293125 20.346875 2.14875 23.13125 2 26 C-3.61 26 -9.22 26 -15 26 C-16.13846154 16.89230769 -16.13846154 16.89230769 -16.125 13.0625 C-16.12757813 12.31097656 -16.13015625 11.55945313 -16.1328125 10.78515625 C-16 9 -16 9 -15 8 C-12.65012738 7.76472227 -10.29443961 7.58613583 -7.9375 7.4375 C-6.64714844 7.35371094 -5.35679687 7.26992188 -4.02734375 7.18359375 C-3.02832031 7.12300781 -2.02929688 7.06242188 -1 7 C-0.67 4.69 -0.34 2.38 0 0 Z " fill="#A5A7A7" transform="translate(338,599)"/>
<path d="M0 0 C0 6.93 0 13.86 0 21 C-4.44761883 21.74126981 -8.06256771 22.11874968 -12.4921875 22.09765625 C-13.69101562 22.09443359 -14.88984375 22.09121094 -16.125 22.08789062 C-17.98125 22.07532227 -17.98125 22.07532227 -19.875 22.0625 C-21.13570312 22.05798828 -22.39640625 22.05347656 -23.6953125 22.04882812 C-26.79692386 22.0370796 -29.89843725 22.02065167 -33 22 C-33 21.67 -33 21.34 -33 21 C-24.585 20.505 -24.585 20.505 -16 20 C-16.061875 17.751875 -16.12375 15.50375 -16.1875 13.1875 C-16.36967803 6.56836492 -16.36967803 6.56836492 -14.80078125 4.15625 C-12.58942904 2.7363796 -10.52964275 2.02396202 -8 1.3125 C-6.700625 0.93544922 -6.700625 0.93544922 -5.375 0.55078125 C-3 0 -3 0 0 0 Z " fill="#A7A9AB" transform="translate(601,696)"/>
<path d="M0 0 C3.9290625 -0.0309375 3.9290625 -0.0309375 7.9375 -0.0625 C8.7637085 -0.071604 9.58991699 -0.08070801 10.44116211 -0.09008789 C12.29433759 -0.09723945 14.14749308 -0.0502852 16 0 C17 1 17 1 17.11352539 2.76586914 C17.10828857 3.51473389 17.10305176 4.26359863 17.09765625 5.03515625 C17.09443359 5.84404297 17.09121094 6.65292969 17.08789062 7.48632812 C17.07951172 8.33646484 17.07113281 9.18660156 17.0625 10.0625 C17.05798828 10.91650391 17.05347656 11.77050781 17.04882812 12.65039062 C17.03700373 14.76695663 17.01906769 16.88348685 17 19 C11.39 18.67 5.78 18.34 0 18 C0 12.06 0 6.12 0 0 Z " fill="#BABDBC" transform="translate(550,111)"/>
<path d="M0 0 C5.28 0 10.56 0 16 0 C17.59273144 3.18546289 17.10141833 6.63199348 17.0625 10.125 C17.041875 12.72375 17.02125 15.3225 17 18 C11.39 18 5.78 18 0 18 C-0.185625 15.40125 -0.37125 12.8025 -0.5625 10.125 C-0.62381104 9.30789551 -0.68512207 8.49079102 -0.74829102 7.64892578 C-1.11111111 2.22222222 -1.11111111 2.22222222 0 0 Z " fill="#B9BBBB" transform="translate(568,165)"/>
<path d="M0 0 C5.61 0 11.22 0 17 0 C17.185625 2.784375 17.37125 5.56875 17.5625 8.4375 C17.62381104 9.31591553 17.68512207 10.19433105 17.74829102 11.09936523 C17.87142264 13.06417779 17.93756604 15.03232325 18 17 C16.17883997 18.82116003 13.69328236 18.1323508 11.2734375 18.13671875 C10.52320313 18.13285156 9.77296875 18.12898437 9 18.125 C7.87464844 18.13080078 7.87464844 18.13080078 6.7265625 18.13671875 C1.12661053 18.12661053 1.12661053 18.12661053 0 17 C-0.07330331 14.13530675 -0.09217831 11.30106326 -0.0625 8.4375 C-0.041875 5.653125 -0.02125 2.86875 0 0 Z " fill="#B9BBBA" transform="translate(205,901)"/>
<path d="M0 0 C5.28 0 10.56 0 16 0 C16.4375 7.3125 16.4375 7.3125 16.56811523 9.6027832 C16.75835191 12.60594873 17.04400348 15.13201045 18 18 C12.06 18 6.12 18 0 18 C0 12.06 0 6.12 0 0 Z " fill="#BABCBD" transform="translate(585,901)"/>
<path d="M0 0 C0.66 0.33 1.32 0.66 2 1 C4.71975715 1.07187519 7.40674632 1.0927862 10.125 1.0625 C12.72375 1.041875 15.3225 1.02125 18 1 C17.67 6.94 17.34 12.88 17 19 C11.72 19 6.44 19 1 19 C0.63923999 16.02149379 0.28609584 13.04243216 -0.0625 10.0625 C-0.16626953 9.21236328 -0.27003906 8.36222656 -0.37695312 7.48632812 C-0.47041016 6.67744141 -0.56386719 5.86855469 -0.66015625 5.03515625 C-0.74918213 4.2862915 -0.83820801 3.53742676 -0.92993164 2.76586914 C-0.9530542 2.18313232 -0.97617676 1.60039551 -1 1 C-0.67 0.67 -0.34 0.34 0 0 Z " fill="#B9BAB9" transform="translate(154,606)"/>
<path d="M0 0 C1.17433594 0.01417969 2.34867188 0.02835938 3.55859375 0.04296875 C5.32396484 0.05263672 5.32396484 0.05263672 7.125 0.0625 C9.99609375 0.23046875 9.99609375 0.23046875 10.99609375 1.23046875 C11.09590589 3.90778255 11.1348925 6.5535105 11.12109375 9.23046875 C11.12689453 10.35582031 11.12689453 10.35582031 11.1328125 11.50390625 C11.12270428 17.10385822 11.12270428 17.10385822 9.99609375 18.23046875 C7.46559973 18.30360442 4.96304538 18.32294402 2.43359375 18.29296875 C1.72267578 18.28845703 1.01175781 18.28394531 0.27929688 18.27929688 C-1.48180638 18.26747739 -3.24286661 18.24954138 -5.00390625 18.23046875 C-5.05772731 15.60519686 -5.09748938 12.98102162 -5.12890625 10.35546875 C-5.14566406 9.60910156 -5.16242187 8.86273438 -5.1796875 8.09375 C-5.19730215 6.13852414 -5.10710814 4.18304854 -5.00390625 2.23046875 C-3.00390625 0.23046875 -3.00390625 0.23046875 0 0 Z " fill="#B8BABA" transform="translate(624.00390625,182.76953125)"/>
<path d="M0 0 C5.61 0.33 11.22 0.66 17 1 C17 6.61 17 12.22 17 18 C11.72 18 6.44 18 1 18 C0.67 12.06 0.34 6.12 0 0 Z " fill="#BCBDBD" transform="translate(618,76)"/>
<path d="M0 0 C5.28 0 10.56 0 16 0 C16 5.61 16 11.22 16 17 C10.72 17 5.44 17 0 17 C0 11.39 0 5.78 0 0 Z " fill="#BABCBB" transform="translate(969,849)"/>
<path d="M0 0 C2 1.625 2 1.625 3 4 C2.9301189 7.91334144 2.5102583 10.24406177 0.3125 13.5 C-2 15 -2 15 -5 15.0625 C-8.76872015 13.72774495 -10.00771679 12.44818248 -12 9 C-12.5625 5.9375 -12.5625 5.9375 -12 3 C-8.27967458 -1.39674823 -5.40387298 -1.60114755 0 0 Z " fill="#7A797A" transform="translate(699,474)"/>
<path d="M0 0 C-0.99 0 -1.98 0 -3 0 C-2.95359375 0.96421875 -2.9071875 1.9284375 -2.859375 2.921875 C-2.82328125 4.18515625 -2.7871875 5.4484375 -2.75 6.75 C-2.70359375 8.00296875 -2.6571875 9.2559375 -2.609375 10.546875 C-3 14 -3 14 -4.890625 16.453125 C-7 18 -7 18 -9 18 C-9.86992154 15.94409546 -10.72037689 13.87994664 -11.5625 11.8125 C-12.03816406 10.66394531 -12.51382813 9.51539063 -13.00390625 8.33203125 C-14.01536316 4.94860873 -14.04283184 3.31583059 -13 0 C-11.39950296 -0.39036513 -9.79437629 -0.76178619 -8.1875 -1.125 C-7.29417969 -1.33382813 -6.40085937 -1.54265625 -5.48046875 -1.7578125 C-3 -2 -3 -2 0 0 Z " fill="#A8AAA9" transform="translate(671,370)"/>
<path d="M0 0 C2.64 0 5.28 0 8 0 C7.57289565 2.8352459 7.13364753 5.66774006 6.6875 8.5 C6.56955078 9.29148437 6.45160156 10.08296875 6.33007812 10.8984375 C5.47257274 16.26334296 4.05928092 20.97004774 2 26 C1.690625 25.360625 1.38125 24.72125 1.0625 24.0625 C0.1654837 22.06389179 0.1654837 22.06389179 -1 21 C-1.38955715 13.94214105 -0.93248069 6.99360519 0 0 Z " fill="#A2A4A6" transform="translate(736,515)"/>
<path d="M0 0 C0.33 0 0.66 0 1 0 C1.05945801 0.57218262 1.11891602 1.14436523 1.18017578 1.73388672 C3.31874968 21.46154173 7.2427572 37.82069261 19 54 C19.94552734 55.30710937 19.94552734 55.30710937 20.91015625 56.640625 C22.24632399 58.4474523 23.61789215 60.22806686 25 62 C23.02 62.495 23.02 62.495 21 63 C20.89429688 62.4121875 20.78859375 61.824375 20.6796875 61.21875 C19.90542182 58.69126204 18.89828191 57.44090558 17.125 55.5 C16.58875 54.89671875 16.0525 54.2934375 15.5 53.671875 C14.7575 52.84429687 14.7575 52.84429687 14 52 C11 48.4 11 48.4 11 45 C10.34 45 9.68 45 9 45 C7.63417423 41.67903277 6.30672757 38.34465648 5 35 C4.71511719 34.28199219 4.43023438 33.56398438 4.13671875 32.82421875 C0.27209228 22.30054358 -0.36640805 11.11437747 0 0 Z " fill="#6E6E70" transform="translate(515,384)"/>
<path d="M0 0 C0.495 1.485 0.495 1.485 1 3 C-6.18055556 10.18055556 -6.18055556 10.18055556 -9.3125 12.8125 C-11.42295903 14.61094045 -13.41154543 16.41154543 -15.375 18.375 C-18.43720651 21.43720651 -21.65928085 24.27793576 -24.9140625 27.1328125 C-26.6733742 28.70762709 -28.3381485 30.32492422 -30 32 C-31.29959297 33.22220448 -32.61284029 34.43000948 -33.9375 35.625 C-34.60652344 36.23601562 -35.27554687 36.84703125 -35.96484375 37.4765625 C-38.06101043 39.04567 -39.46491616 39.51410893 -42 40 C-42.680625 40.37125 -43.36125 40.7425 -44.0625 41.125 C-46 42 -46 42 -49 41 C-48.09378906 40.43152344 -47.18757813 39.86304688 -46.25390625 39.27734375 C-28.75443511 28.22099104 -14.50064194 14.67629266 0 0 Z " fill="#636362" transform="translate(524,305)"/>
<path d="M0 0 C0.66 0.33 1.32 0.66 2 1 C1.55123384 2.64846769 1.09069512 4.29373455 0.625 5.9375 C0.24214844 7.31228516 0.24214844 7.31228516 -0.1484375 8.71484375 C-1 11 -1 11 -3 12 C-3.165 13.155 -3.33 14.31 -3.5 15.5 C-3.665 16.655 -3.83 17.81 -4 19 C-4.66 19.33 -5.32 19.66 -6 20 C-6.95729579 22.03849908 -6.95729579 22.03849908 -7.8125 24.5 C-9.4617841 28.80035558 -11.40599706 32.70287841 -13.6953125 36.69140625 C-15.13654706 39.24161471 -16.48604568 41.82580888 -17.8125 44.4375 C-18.23144531 45.26121094 -18.65039062 46.08492188 -19.08203125 46.93359375 C-20.13532606 48.92777287 -20.13532606 48.92777287 -20 51 C-20.66 51.66 -21.32 52.32 -22 53 C-22.33 53.66 -22.66 54.32 -23 55 C-23.66 55 -24.32 55 -25 55 C-23.54946239 50.21678406 -21.54204582 45.86413416 -19.26171875 41.43359375 C-18.51617109 39.96294382 -17.77073196 38.49223888 -17.02539062 37.02148438 C-15.86259774 34.73903722 -14.69781015 32.45763949 -13.53051758 30.17749023 C-9.2088296 21.72105283 -5.14289629 13.35920403 -1.88598633 4.42602539 C-1 2 -1 2 0 0 Z " fill="#787775" transform="translate(460,392)"/>
<path d="M0 0 C1.32 0 2.64 0 4 0 C4 5.94 4 11.88 4 18 C-1 17 -1 17 -2 16 C-2.12557162 13.69006618 -2.17575729 11.37581464 -2.1875 9.0625 C-2.20167969 7.79535156 -2.21585938 6.52820313 -2.23046875 5.22265625 C-2 2 -2 2 0 0 Z " fill="#B9BBB9" transform="translate(1020,902)"/>
<path d="M0 0 C5.61 0 11.22 0 17 0 C17 1.98 17 3.96 17 6 C11.39 6 5.78 6 0 6 C0 4.02 0 2.04 0 0 Z " fill="#B8B9B6" transform="translate(818,0)"/>
<path d="M0 0 C0.33 0.66 0.66 1.32 1 2 C1.66 2 2.32 2 3 2 C4.35439668 4.70879335 4.06501451 7.00933268 4 10 C2.68 8.35 1.36 6.7 0 5 C-3.26460973 6.80412643 -4.88929795 7.83394693 -7 11 C-9.31 10.01 -11.62 9.02 -14 8 C-14 7.34 -14 6.68 -14 6 C-14.99 5.67 -15.98 5.34 -17 5 C-16 4 -16 4 -13.4375 3.9375 C-12.2309375 3.9684375 -12.2309375 3.9684375 -11 4 C-11 3.34 -11 2.68 -11 2 C-9.93458984 1.90912109 -9.93458984 1.90912109 -8.84765625 1.81640625 C-7.46900391 1.69072266 -7.46900391 1.69072266 -6.0625 1.5625 C-5.14597656 1.48128906 -4.22945312 1.40007812 -3.28515625 1.31640625 C-1.03840268 1.23955024 -1.03840268 1.23955024 0 0 Z " fill="#CFD3D1" transform="translate(634,320)"/>
<path d="M0 0 C5.61 0 11.22 0 17 0 C16.67 1.98 16.34 3.96 16 6 C10.72 6 5.44 6 0 6 C0 4.02 0 2.04 0 0 Z " fill="#B8B8B7" transform="translate(38,0)"/>
<path d="M0 0 C5.61 0 11.22 0 17 0 C17 1.65 17 3.3 17 5 C11.29309366 5.99250545 5.78591511 6.10477512 0 6 C0 4.02 0 2.04 0 0 Z " fill="#BABAB9" transform="translate(89,0)"/>
<path d="M0 0 C0.66 0 1.32 0 2 0 C2 0.99 2 1.98 2 3 C2.66 3 3.32 3 4 3 C4.12117188 3.63808594 4.24234375 4.27617188 4.3671875 4.93359375 C4.53476562 5.75988281 4.70234375 6.58617187 4.875 7.4375 C5.03742188 8.26121094 5.19984375 9.08492187 5.3671875 9.93359375 C5.68042969 10.95646484 5.68042969 10.95646484 6 12 C6.66 12.33 7.32 12.66 8 13 C8.625 15.5625 8.625 15.5625 9 18 C9.66 18 10.32 18 11 18 C11.45375 18.94875 11.9075 19.8975 12.375 20.875 C13.80238254 24.00313679 13.80238254 24.00313679 16 26 C16.6364032 27.23389965 17.23707417 28.48651178 17.8125 29.75 C19.73495154 33.72548469 22.05221481 36.72468313 25 40 C24.67 40.66 24.34 41.32 24 42 C15.46779593 32.48989288 0 13.09859632 0 0 Z " fill="#6A6A68" transform="translate(436,589)"/>
<path d="M0 0 C1.32 0.66 2.64 1.32 4 2 C4 5 4 5 3 8 C2.175 7.731875 1.35 7.46375 0.5 7.1875 C-3.96922415 6.94807728 -5.74568654 8.40383361 -9.265625 10.96875 C-10.12414062 11.47921875 -10.12414062 11.47921875 -11 12 C-11.66 11.67 -12.32 11.34 -13 11 C-11.47005208 9.76302083 -9.94010417 8.52604167 -8.41015625 7.2890625 C-6.86733563 6.0333609 -6.86733563 6.0333609 -6 4 C-8.31 4.33 -10.62 4.66 -13 5 C-9.83759418 2.89172945 -8.49342531 2.66182535 -4.8125 2.375 C-3.46091797 2.26285156 -3.46091797 2.26285156 -2.08203125 2.1484375 C-1.39496094 2.09945313 -0.70789063 2.05046875 0 2 C0 1.34 0 0.68 0 0 Z " fill="#828284" transform="translate(450,372)"/>
<path d="M0 0 C0.66 0 1.32 0 2 0 C2.03738281 1.23234375 2.07476563 2.4646875 2.11328125 3.734375 C2.4366434 12.37600997 2.89863245 20.4249415 5.4765625 28.75 C6 31 6 31 5 34 C-2.0171893 24.43110549 -0.20729154 11.21677573 0 0 Z " fill="#7B7D7E" transform="translate(540,261)"/>
<path d="M0 0 C2.52259061 1.97420135 2.9929808 2.96745642 3.6875 6.1875 C3.790625 7.115625 3.89375 8.04375 4 9 C-3.75 9.125 -3.75 9.125 -6 8 C-5.8125 5.6875 -5.8125 5.6875 -5 3 C-2.4375 1.1875 -2.4375 1.1875 0 0 Z " fill="#C0C3C3" transform="translate(634,324)"/>
<path d="M0 0 C-1.59220784 3.18441567 -4.88306007 3.6816191 -8.0625 4.875 C-12.42535729 6.55230722 -16.67797317 8.24007556 -20.8125 10.4375 C-21.864375 10.953125 -22.91625 11.46875 -24 12 C-24.66 11.67 -25.32 11.34 -26 11 C-24.6875 9.5 -24.6875 9.5 -23 8 C-22.01 8 -21.02 8 -20 8 C-19.34 6.68 -18.68 5.36 -18 4 C-15.36 4 -12.72 4 -10 4 C-9.67 3.01 -9.34 2.02 -9 1 C-6.03421164 -0.16513114 -3.15436364 -0.08762121 0 0 Z " fill="#7B7C80" transform="translate(438,300)"/>
<path d="M0 0 C0.33 0.66 0.66 1.32 1 2 C-2.25 8.5 -2.25 8.5 -6 11 C-6.6496875 12.2065625 -6.6496875 12.2065625 -7.3125 13.4375 C-9.41259702 16.62653622 -11.53251011 17.53594871 -15 19 C-13.4928658 13.74512544 -10.06992802 10.52059306 -6.375 6.6875 C-5.45847656 5.71973633 -5.45847656 5.71973633 -4.5234375 4.73242188 C-3.02189664 3.1487655 -1.51406957 1.57166659 0 0 Z " fill="#8B8D8C" transform="translate(703,267)"/>
<path d="M0 0 C1.32 0.99 2.64 1.98 4 3 C3.29922267 6.153498 2.4158649 9.08961104 1 12 C0.01 12.33 -0.98 12.66 -2 13 C-3.24950052 15.55401848 -3.24950052 15.55401848 -4.1875 18.5625 C-4.53167969 19.57441406 -4.87585938 20.58632813 -5.23046875 21.62890625 C-5.48441406 22.41136719 -5.73835938 23.19382812 -6 24 C-7.47604848 19.45753931 -5.85590888 16.24649646 -4.125 12 C-3.56324498 10.58406953 -3.00329062 9.16742309 -2.4453125 7.75 C-2.06656982 6.81414062 -2.06656982 6.81414062 -1.68017578 5.859375 C-0.97358133 3.92778011 -0.46458331 2.00230421 0 0 Z " fill="#868688" transform="translate(443,456)"/>
<path d="M0 0 C2.73033682 3.30859592 5.12473673 6.66242507 7.375 10.3125 C10.35812011 15.06745171 13.54265094 19.58016549 17 24 C15.68 24.33 14.36 24.66 13 25 C12.89429688 24.4121875 12.78859375 23.824375 12.6796875 23.21875 C11.90542182 20.69126204 10.89828191 19.44090558 9.125 17.5 C8.58875 16.89671875 8.0525 16.2934375 7.5 15.671875 C7.005 15.12015625 6.51 14.5684375 6 14 C3 10.4 3 10.4 3 7 C2.34 7 1.68 7 1 7 C0.67 4.69 0.34 2.38 0 0 Z " fill="#5F6063" transform="translate(523,422)"/>
<path d="M0 0 C0.66 0.33 1.32 0.66 2 1 C1.37235543 7.65303244 1.37235543 7.65303244 -0.375 9.28125 C-2.78376464 11.82898183 -3.60379549 14.92329033 -4.6875 18.1875 C-4.91244141 18.84169922 -5.13738281 19.49589844 -5.36914062 20.16992188 C-5.92057309 21.77728884 -6.46134891 23.38830483 -7 25 C-9.12653855 18.86799501 -6.34239672 11.84014499 -3.68359375 6.21484375 C-2.50892088 4.1031099 -1.30080647 2.0360449 0 0 Z " fill="#6B6A6C" transform="translate(406,528)"/>
<path d="M0 0 C2 2 2 2 2.375 5.25 C1.93519877 9.64801226 0.5238052 11.43698089 -2 15 C-2.85429553 17.31880217 -3.4217199 19.59049958 -4 22 C-4.66 22 -5.32 22 -6 22 C-4.20645194 14.59684417 -2.26858827 7.27235389 0 0 Z " fill="#C2C5C4" transform="translate(591,286)"/>
<path d="M0 0 C0.66 1.32 1.32 2.64 2 4 C1.34 4 0.68 4 0 4 C-1.51953709 8.91582077 -1.51953709 8.91582077 -2 14 C-2.99 14.66 -3.98 15.32 -5 16 C-6.01396473 18.38210306 -6.88457392 20.67498387 -7.6875 23.125 C-7.91244141 23.78371094 -8.13738281 24.44242188 -8.36914062 25.12109375 C-8.921968 26.74428901 -9.46221309 28.37175979 -10 30 C-11.36186776 25.91439673 -9.88846496 23.32405106 -8.375 19.5 C-8.10155762 18.79037109 -7.82811523 18.08074219 -7.54638672 17.34960938 C-5.25141839 11.4653478 -2.7277896 5.69697652 0 0 Z " fill="#747573" transform="translate(398,513)"/>
<path d="M0 0 C0.66 0 1.32 0 2 0 C1.09409469 2.99645602 0.22053461 5.64522693 -1.4375 8.3125 C-3.25804939 11.44384494 -4.22482621 14.55238189 -5.25390625 18.01171875 C-6 20 -6 20 -8 22 C-8.33 22.66 -8.66 23.32 -9 24 C-9.66 24 -10.32 24 -11 24 C-9.39323547 18.54406329 -6.94969106 13.6697853 -4.375 8.625 C-3.95476562 7.79355469 -3.53453125 6.96210938 -3.1015625 6.10546875 C-2.07133925 4.06843641 -1.03741179 2.03337811 0 0 Z " fill="#6E6D6C" transform="translate(446,423)"/>
<path d="M0 0 C0.825 0.28875 1.65 0.5775 2.5 0.875 C6.30795181 2.09898451 10.11270827 3.0616882 14 4 C14 4.66 14 5.32 14 6 C15.65 5.34 17.3 4.68 19 4 C19 4.99 19 5.98 19 7 C22.63 7 26.26 7 30 7 C30 7.33 30 7.66 30 8 C18.56813661 8.60079866 9.69017803 7.30466128 0 1 C0 0.67 0 0.34 0 0 Z " fill="#71727C" transform="translate(611,340)"/>
<path d="M0 0 C1.17841928 3.53525784 0.91399027 5.4202048 0 9 C-0.99 9.66 -1.98 10.32 -3 11 C-2.69078116 9.54096742 -2.37751201 8.08279278 -2.0625 6.625 C-1.88847656 5.81289063 -1.71445312 5.00078125 -1.53515625 4.1640625 C-1 2 -1 2 0 0 Z M-4 11 C-2.0549 13.91765 -1.54723683 15.62537285 -1 19 C-1.61875 19.12375 -2.2375 19.2475 -2.875 19.375 C-5.19120832 19.87197356 -5.19120832 19.87197356 -7 22 C-6.69078116 20.54096742 -6.37751201 19.08279278 -6.0625 17.625 C-5.88847656 16.81289063 -5.71445312 16.00078125 -5.53515625 15.1640625 C-5 13 -5 13 -4 11 Z " fill="#A4A7A6" transform="translate(751,542)"/>
<path d="M0 0 C3 2 3 2 3.75 5 C4 8 4 8 3 10 C3.08744368 11.87862875 3.24175542 13.75455181 3.4375 15.625 C3.53933594 16.62789063 3.64117188 17.63078125 3.74609375 18.6640625 C3.82988281 19.43492187 3.91367187 20.20578125 4 21 C3.34 21.33 2.68 21.66 2 22 C0.57374434 14.58856436 -0.30071865 7.55137932 0 0 Z " fill="#75767A" transform="translate(636,306)"/>
<path d="M0 0 C0.33 0.99 0.66 1.98 1 3 C-3.00865765 7.00865765 -6.98061726 10.85046896 -11.34375 14.46484375 C-13.23194523 16.09533304 -13.23194523 16.09533304 -15 19 C-15.66 19 -16.32 19 -17 19 C-15.60652624 15.84795019 -13.97514921 13.73828227 -11.5234375 11.328125 C-10.51796875 10.33232422 -10.51796875 10.33232422 -9.4921875 9.31640625 C-8.79351563 8.63449219 -8.09484375 7.95257813 -7.375 7.25 C-6.66859375 6.55261719 -5.9621875 5.85523438 -5.234375 5.13671875 C-3.49401297 3.41987512 -1.74915019 1.70788168 0 0 Z " fill="#70706F" transform="translate(524,305)"/>
<path d="M0 0 C0.66 0 1.32 0 2 0 C2.85373239 7.02804699 3.12109311 13.92278069 3 21 C1 20 1 20 0.38110352 18.18066406 C-0.22371138 14.71992951 -0.10270093 11.25057316 -0.0625 7.75 C-0.05798828 7.00492188 -0.05347656 6.25984375 -0.04882812 5.4921875 C-0.03709246 3.6614236 -0.0191585 1.83070127 0 0 Z " fill="#8C8D8F" transform="translate(704,244)"/>
<path d="M0 0 C0.66 0.33 1.32 0.66 2 1 C-1.27227614 3.75771675 -4.55576087 5.10840469 -8.5625 6.5625 C-12.06211328 7.83761449 -14.89440132 8.92960088 -18 11 C-20.6875 11.125 -20.6875 11.125 -23 11 C-21.65297366 8.30594733 -20.3784449 8.16942476 -17.59765625 7.08984375 C-16.70755859 6.73986328 -15.81746094 6.38988281 -14.90039062 6.02929688 C-13.96388672 5.66900391 -13.02738281 5.30871094 -12.0625 4.9375 C-10.21983371 4.21800694 -8.37737556 3.49798052 -6.53515625 2.77734375 C-5.714104 2.46015381 -4.89305176 2.14296387 -4.04711914 1.81616211 C-1.9823467 1.02624541 -1.9823467 1.02624541 0 0 Z " fill="#727273" transform="translate(469,349)"/>
<path d="M0 0 C2.19050021 0.09017996 4.378466 0.24666208 6.5625 0.4375 C7.76003906 0.53933594 8.95757813 0.64117187 10.19140625 0.74609375 C11.11824219 0.82988281 12.04507813 0.91367187 13 1 C12.67 1.99 12.34 2.98 12 4 C8.37 3.34 4.74 2.68 1 2 C0.67 6.29 0.34 10.58 0 15 C-0.33 15 -0.66 15 -1 15 C-1.02685412 12.68756208 -1.04632841 10.3750373 -1.0625 8.0625 C-1.07410156 6.77472656 -1.08570313 5.48695313 -1.09765625 4.16015625 C-1 1 -1 1 0 0 Z " fill="#858585" transform="translate(592,271)"/>
<path d="M0 0 C0.66 0.33 1.32 0.66 2 1 C0.63733025 4.07924694 -0.87966014 6.0908659 -3.3359375 8.3828125 C-3.98820313 8.99253906 -4.64046875 9.60226562 -5.3125 10.23046875 C-5.993125 10.85566406 -6.67375 11.48085938 -7.375 12.125 C-8.04789063 12.75792969 -8.72078125 13.39085937 -9.4140625 14.04296875 C-12.490905 16.89571052 -15.14967328 19.25331808 -19 21 C-8.67105263 8.60526316 -8.67105263 8.60526316 -2.8203125 4.453125 C-0.7108602 3.03946488 -0.7108602 3.03946488 0 0 Z " fill="#8B8C8C" transform="translate(674,295)"/>
<path d="M0 0 C0 2.31 0 4.62 0 7 C-0.66 7 -1.32 7 -2 7 C-1.731875 7.556875 -1.46375 8.11375 -1.1875 8.6875 C-1.125625 9.450625 -1.06375 10.21375 -1 11 C-3.4375 13.75 -3.4375 13.75 -6 16 C-6 15.01 -6 14.02 -6 13 C-5.34 13 -4.68 13 -4 13 C-4 9.04 -4 5.08 -4 1 C-1 0 -1 0 0 0 Z " fill="#B6B8B9" transform="translate(530,289)"/>
<path d="M0 0 C2.56095968 2.48982191 4.96205687 4.95230006 7.1875 7.75 C8.80309077 10.07487388 8.80309077 10.07487388 11 11 C11 11.99 11 12.98 11 14 C11.66 14 12.32 14 13 14 C12.67 15.32 12.34 16.64 12 18 C10.86966702 16.75482035 9.74594964 15.50363348 8.625 14.25 C7.99851562 13.55390625 7.37203125 12.8578125 6.7265625 12.140625 C5.11648607 10.14442164 4.08186524 8.30862314 3 6 C2.195625 4.948125 2.195625 4.948125 1.375 3.875 C0 2 0 2 0 0 Z " fill="#949496" transform="translate(365,621)"/>
<path d="M0 0 C1.72274487 2.58411731 2.68895522 4.54902656 3.6875 7.4375 C3.95949219 8.19933594 4.23148438 8.96117187 4.51171875 9.74609375 C5.04729142 12.21829721 4.80445309 13.62983284 4 16 C3.67 15.34 3.34 14.68 3 14 C2.01 14.33 1.02 14.66 0 15 C-0.33 12.69 -0.66 10.38 -1 8 C-0.34 8 0.32 8 1 8 C0.67 5.36 0.34 2.72 0 0 Z " fill="#979A9B" transform="translate(735,420)"/>
<path d="M0 0 C0.804375 0.185625 1.60875 0.37125 2.4375 0.5625 C6.78253084 1.09610028 10.68989724 0.6225704 15 0 C15.33 0.66 15.66 1.32 16 2 C8.74 2.99 1.48 3.98 -6 5 C-5.67 4.34 -5.34 3.68 -5 3 C-3.66666667 2.66666667 -2.33333333 2.33333333 -1 2 C-0.67 1.34 -0.34 0.68 0 0 Z " fill="#94979C" transform="translate(465,244)"/>
<path d="M0 0 C1.39935013 2.79870027 1.25265405 4.90498792 1 8 C-0.375 9.875 -0.375 9.875 -2 11 C-2.66 11 -3.32 11 -4 11 C-4.66 12.32 -5.32 13.64 -6 15 C-6.33 14.34 -6.66 13.68 -7 13 C-4.54545455 7.27272727 -4.54545455 7.27272727 -2 6 C-2 4.35 -2 2.7 -2 1 C-1.34 0.67 -0.68 0.34 0 0 Z " fill="#8A8A8C" transform="translate(459,426)"/>
<path d="M0 0 C-0.556875 0.268125 -1.11375 0.53625 -1.6875 0.8125 C-4.04599885 1.95283663 -4.04599885 1.95283663 -6.1875 3.5625 C-10.03603083 5.52952687 -13.73119952 5.73029365 -18 6 C-15.43461521 3.43461521 -12.93954104 2.62642121 -9.5625 1.3125 C-8.40878906 0.85488281 -7.25507813 0.39726562 -6.06640625 -0.07421875 C-3 -1 -3 -1 0 0 Z " fill="#818382" transform="translate(408,298)"/>
<path d="M0 0 C0.99 0.33 1.98 0.66 3 1 C2.319375 1.53625 1.63875 2.0725 0.9375 2.625 C-2.43384168 5.35076561 -5.72065543 8.16483178 -9 11 C-9.66 10.67 -10.32 10.34 -11 10 C-7.72611299 5.76320505 -4.79159238 2.60412629 0 0 Z " fill="#9C9A99" transform="translate(432,385)"/>
<path d="M0 0 C3.59337977 2.26950302 5.27241845 3.97921708 6.25 8.0625 C6.50185144 9.37464599 6.75198235 10.68712396 7 12 C7.33 12.99 7.66 13.98 8 15 C5 14 5 14 3.4375 11.4375 C1.84560587 7.63079665 0.90139045 4.02158817 0 0 Z " fill="#999898" transform="translate(540,464)"/>
<path d="M0 0 C0.44730469 0.34933594 0.89460937 0.69867188 1.35546875 1.05859375 C4.96045935 3.77194488 7.49604231 5.24934039 12 6 C13.8125 7.5625 13.8125 7.5625 15 9 C12 10 12 10 9.84375 9.109375 C9.0703125 8.66078125 8.296875 8.2121875 7.5 7.75 C6.7265625 7.31171875 5.953125 6.8734375 5.15625 6.421875 C3.13552369 5.08936707 1.55339929 3.85212992 0 2 C0 1.34 0 0.68 0 0 Z " fill="#5E5D67" transform="translate(592,388)"/>
<path d="M0 0 C0.66 0 1.32 0 2 0 C2.66 5.94 3.32 11.88 4 18 C3.34 17.67 2.68 17.34 2 17 C1.26924352 14.6859378 0.59861742 12.35171131 0 10 C-0.33 10 -0.66 10 -1 10 C-1 2 -1 2 0 0 Z " fill="#797A7C" transform="translate(681,265)"/>
<path d="M0 0 C1.11651815 3.34955444 0.99822121 4.67259596 0 8 C-1.375 9.5625 -1.375 9.5625 -3 11 C-4.01800576 12.31963709 -5.02248365 13.65009646 -6 15 C-6.33 13.02 -6.66 11.04 -7 9 C-6.401875 8.62875 -5.80375 8.2575 -5.1875 7.875 C-2.50345491 5.57438992 -1.4233286 3.20248935 0 0 Z " fill="#7B7B7C" transform="translate(467,409)"/>
<path d="M0 0 C0.64324219 0.06058594 1.28648437 0.12117188 1.94921875 0.18359375 C9.29416058 0.86465112 16.64413091 1.45035636 24 2 C23.67 2.66 23.34 3.32 23 4 C18.05 4 13.1 4 8 4 C8 3.34 8 2.68 8 2 C5.36 1.67 2.72 1.34 0 1 C0 0.67 0 0.34 0 0 Z " fill="#787976" transform="translate(373,364)"/>
<path d="M0 0 C2 2 2 2 2 6 C1.34 6 0.68 6 0 6 C-0.103125 6.598125 -0.20625 7.19625 -0.3125 7.8125 C-1.10161794 10.32332981 -2.04744654 11.28175296 -4 13 C-4.66 13.66 -5.32 14.32 -6 15 C-6 10.87830439 -5.74291461 10.14326539 -3.5625 6.9375 C-1.94382557 4.5348522 -0.92770958 2.78312875 0 0 Z " fill="#808284" transform="translate(497,349)"/>
<path d="M0 0 C1.09375 3.7578125 1.09375 3.7578125 0.25 5.9375 C-0.1625 6.618125 -0.575 7.29875 -1 8 C-1.45375 8.886875 -1.9075 9.77375 -2.375 10.6875 C-4 13 -4 13 -6.1875 13.8125 C-6.785625 13.874375 -7.38375 13.93625 -8 14 C-6.46162154 10.80375738 -4.71133468 7.78394426 -2.875 4.75 C-2.33617187 3.85796875 -1.79734375 2.9659375 -1.2421875 2.046875 C-0.62730469 1.03367187 -0.62730469 1.03367187 0 0 Z " fill="#A2A5A4" transform="translate(729,591)"/>
<path d="M0 0 C0.33 0.66 0.66 1.32 1 2 C1.66 2 2.32 2 3 2 C4.35439668 4.70879335 4.06501451 7.00933268 4 10 C1 6.375 1 6.375 1 3 C-3.455 3.495 -3.455 3.495 -8 4 C-7.67 3.34 -7.34 2.68 -7 2 C-4.6859378 1.26924352 -2.35171131 0.59861742 0 0 Z " fill="#DADDDD" transform="translate(634,320)"/>
<path d="M0 0 C0 3 0 3 -2.40625 5.69921875 C-3.4299968 6.70302243 -4.4616054 7.69885649 -5.5 8.6875 C-6.02464844 9.19861328 -6.54929687 9.70972656 -7.08984375 10.23632812 C-8.38660904 11.49772708 -9.69246117 12.74977212 -11 14 C-11.66 13.67 -12.32 13.34 -13 13 C-11.71937515 11.2925002 -10.38232443 9.62626404 -9 8 C-8.34 8 -7.68 8 -7 8 C-7 7.34 -7 6.68 -7 6 C-5.46875 4.4921875 -5.46875 4.4921875 -3.5 2.875 C-2.8503125 2.33617187 -2.200625 1.79734375 -1.53125 1.2421875 C-0.77328125 0.62730469 -0.77328125 0.62730469 0 0 Z " fill="#EDEDEA" transform="translate(411,424)"/>
<path d="M0 0 C0.66 0.33 1.32 0.66 2 1 C-3.94 6.445 -3.94 6.445 -10 12 C-10.66 11.34 -11.32 10.68 -12 10 C-8.04 6.7 -4.08 3.4 0 0 Z " fill="#C8C9C7" transform="translate(444,396)"/>
<path d="M0 0 C4.83210764 4.10729149 7.2606817 10.05732913 9 16 C4.49583156 12.32993682 2.23209799 7.25091904 0 2 C0 1.34 0 0.68 0 0 Z " fill="#828284" transform="translate(356,605)"/>
<path d="M0 0 C1.10493755 3.31481265 1.05432279 5.66131116 0 9 C-0.99 9.66 -1.98 10.32 -3 11 C-3.36923077 4.6 -3.36923077 4.6 -1.5 1.5625 C-1.005 1.046875 -0.51 0.53125 0 0 Z " fill="#CBCECB" transform="translate(503,359)"/>
<path d="M0 0 C3.51098025 4.01254885 5.76537994 8.20983041 8 13 C6.046875 12.1328125 6.046875 12.1328125 4 11 C3.25 8.875 3.25 8.875 3 7 C2.34 7 1.68 7 1 7 C0.67 4.69 0.34 2.38 0 0 Z " fill="#59585D" transform="translate(523,422)"/>
<path d="M0 0 C0.99 0.66 1.98 1.32 3 2 C0.77631342 4.55723956 -0.7237531 5.30503854 -4 6 C-4.680625 6.37125 -5.36125 6.7425 -6.0625 7.125 C-8 8 -8 8 -11 7 C-7.37 4.69 -3.74 2.38 0 0 Z " fill="#707070" transform="translate(486,339)"/>
<path d="M0 0 C1.65 0 3.3 0 5 0 C5 1.98 5 3.96 5 6 C3.68 6 2.36 6 1 6 C0.67 4.02 0.34 2.04 0 0 Z " fill="#BBBCB7" transform="translate(1019,0)"/>
<path d="M0 0 C0.66 0.33 1.32 0.66 2 1 C-0.64 3.97 -3.28 6.94 -6 10 C-6.99 9.67 -7.98 9.34 -9 9 C-6.03 6.03 -3.06 3.06 0 0 Z " fill="#B9BABC" transform="translate(515,334)"/>
<path d="M0 0 C1.65 0.33 3.3 0.66 5 1 C2.04925888 2.56779517 -0.87119234 3.70074575 -4.0625 4.6875 C-4.91972656 4.95949219 -5.77695312 5.23148437 -6.66015625 5.51171875 C-9 6 -9 6 -12 5 C-8.86501708 3.14223235 -6.62528568 2.79859524 -3 3 C-2.67 2.34 -2.34 1.68 -2 1 C-1.34 1.33 -0.68 1.66 0 2 C0 1.34 0 0.68 0 0 Z " fill="#7B7C83" transform="translate(455,293)"/>
<path d="M0 0 C0.66 0.66 1.32 1.32 2 2 C1.34 2.66 0.68 3.32 0 4 C-0.70710678 5.64991582 -1.37943989 7.31562256 -2 9 C-2.66 8.01 -3.32 7.02 -4 6 C-4.99 6.495 -4.99 6.495 -6 7 C-5.67 5.68 -5.34 4.36 -5 3 C-3.68 3 -2.36 3 -1 3 C-0.67 2.01 -0.34 1.02 0 0 Z " fill="#8D8C8E" transform="translate(466,377)"/>
<path d="M0 0 C3.88975419 3.59054233 6.89732195 7.73898882 10 12 C9.67 12.66 9.34 13.32 9 14 C5.76908018 11.85295713 4.07174306 9.85045691 2.25 6.4375 C1.82203125 5.65246094 1.3940625 4.86742187 0.953125 4.05859375 C0 2 0 2 0 0 Z " fill="#808283" transform="translate(464,612)"/>
<path d="M0 0 C1.32 0 2.64 0 4 0 C5.4375 2.1875 5.4375 2.1875 7 5 C8.62836738 6.7041054 10.28769752 8.38025441 12 10 C8.78727751 8.56006357 6.3793336 6.76981628 3.75 4.4375 C3.04359375 3.81746094 2.3371875 3.19742188 1.609375 2.55859375 C1.07828125 2.04425781 0.5471875 1.52992188 0 1 C0 0.67 0 0.34 0 0 Z " fill="#717072" transform="translate(479,652)"/>
<path d="M0 0 C0.66 0 1.32 0 2 0 C0.77759242 4.04334814 -0.60438306 7.50639197 -3 11 C-3.99 11.495 -3.99 11.495 -5 12 C-3.68938409 7.76570244 -2.05643741 3.92592596 0 0 Z " fill="#676664" transform="translate(446,423)"/>
<path d="M0 0 C0.66 0.66 1.32 1.32 2 2 C-2.88077452 4.44038726 -5.52667068 5.46845421 -11 4 C-11 3.67 -11 3.34 -11 3 C-7.37 2.01 -3.74 1.02 0 0 Z " fill="#D1D1CF" transform="translate(567,322)"/>
<path d="M0 0 C2.0625 0.4375 2.0625 0.4375 4 1 C3.649375 1.763125 3.29875 2.52625 2.9375 3.3125 C1.67639116 6.04759379 1.67639116 6.04759379 3 9 C2.01 10.485 2.01 10.485 1 12 C0.63896464 10.18885568 0.28634496 8.37603177 -0.0625 6.5625 C-0.25972656 5.55316406 -0.45695313 4.54382813 -0.66015625 3.50390625 C-0.77230469 2.67761719 -0.88445313 1.85132813 -1 1 C-0.67 0.67 -0.34 0.34 0 0 Z " fill="#E3E5E7" transform="translate(649,300)"/>
<path d="M0 0 C0.66 0 1.32 0 2 0 C2.29296875 6.0546875 2.29296875 6.0546875 2 8 C1.01 8.66 0.02 9.32 -1 10 C-1.33 8.68 -1.66 7.36 -2 6 C-1.34 6 -0.68 6 0 6 C0 4.02 0 2.04 0 0 Z " fill="#919393" transform="translate(530,290)"/>
<path d="M0 0 C0.66 0.33 1.32 0.66 2 1 C1.50769231 7.52307692 1.50769231 7.52307692 -1.0625 9.9375 C-1.701875 10.288125 -2.34125 10.63875 -3 11 C-3.75 9.4375 -3.75 9.4375 -4 7 C-2.86915563 4.49713591 -1.47860484 2.32992278 0 0 Z " fill="#838383" transform="translate(406,528)"/>
<path d="M0 0 C0.66 0.33 1.32 0.66 2 1 C0.76210371 4.71368887 -0.85224877 5.77354181 -4 8 C-4.66 8 -5.32 8 -6 8 C-4.55746343 4.63408134 -2.66735273 2.48952921 0 0 Z " fill="#878682" transform="translate(394,419)"/>
<path d="M0 0 C0.66 0.66 1.32 1.32 2 2 C-0.68841859 4.25245881 -2.64641875 5.88213958 -6 7 C-4.52307692 2.32307692 -4.52307692 2.32307692 -1.875 0.6875 C-1.25625 0.460625 -0.6375 0.23375 0 0 Z " fill="#C4C6C7" transform="translate(507,353)"/>
<path d="M0 0 C5.28089024 -0.30466674 6.577168 -0.317124 11 3 C7.04 3 3.08 3 -1 3 C-0.67 2.01 -0.34 1.02 0 0 Z " fill="#C4C4C2" transform="translate(545,321)"/>
<path d="M0 0 C-1.62170379 1.00533667 -3.24747237 2.00411907 -4.875 3 C-6.23238281 3.8353125 -6.23238281 3.8353125 -7.6171875 4.6875 C-10 6 -10 6 -12 6 C-12 5.34 -12 4.68 -12 4 C-11.01 3.67 -10.02 3.34 -9 3 C-7.97980427 2.0206121 -6.97850195 1.02104551 -6 0 C-3.50907189 -1.24546405 -2.58919267 -0.7767578 0 0 Z " fill="#848584" transform="translate(412,313)"/>
<path d="M0 0 C3 2 3 2 3.6875 5.125 C3.8421875 6.548125 3.8421875 6.548125 4 8 C2.02 8.99 2.02 8.99 0 10 C0 6.7 0 3.4 0 0 Z " fill="#828187" transform="translate(636,306)"/>
<path d="M0 0 C2.95012857 1.36970255 5.5652222 2.82609125 8 5 C8 5.99 8 6.98 8 8 C4.63820226 6.55922954 2.40843732 4.75249979 0 2 C0 1.34 0 0.68 0 0 Z " fill="#75757A" transform="translate(603,332)"/>
<path d="M0 0 C-4.64203897 2.53309233 -8.65155992 4.46515599 -14 5 C-12.6045933 2.20918661 -10.98580959 1.96096994 -8.125 0.8125 C-7.24070312 0.44769531 -6.35640625 0.08289063 -5.4453125 -0.29296875 C-3 -1 -3 -1 0 0 Z " fill="#848685" transform="translate(423,292)"/>
<path d="M0 0 C0.185625 0.9590625 0.185625 0.9590625 0.375 1.9375 C0.684375 2.9584375 0.684375 2.9584375 1 4 C1.66 4.33 2.32 4.66 3 5 C3 5.66 3 6.32 3 7 C0 8 0 8 -3 7 C-3 6.34 -3 5.68 -3 5 C-2.34 5 -1.68 5 -1 5 C-0.67 3.35 -0.34 1.7 0 0 Z " fill="#999A9C" transform="translate(391,644)"/>
<path d="M0 0 C0.66 0.66 1.32 1.32 2 2 C-0.64 4.31 -3.28 6.62 -6 9 C-6 6 -6 6 -4.6875 4.39453125 C-4.130625 3.87246094 -3.57375 3.35039063 -3 2.8125 C-2.443125 2.28269531 -1.88625 1.75289062 -1.3125 1.20703125 C-0.6628125 0.60955078 -0.6628125 0.60955078 0 0 Z " fill="#A7A9A9" transform="translate(685,645)"/>
<path d="M0 0 C0.66 0 1.32 0 2 0 C1.00956295 4.83628305 0.04301154 9.47618873 -2 14 C-3.21065165 10.36804504 -2.62784815 8.93468371 -1.5625 5.3125 C-1.27503906 4.31863281 -0.98757813 3.32476563 -0.69140625 2.30078125 C-0.46324219 1.54152344 -0.23507812 0.78226563 0 0 Z " fill="#9B9D9C" transform="translate(734,545)"/>
<path d="M0 0 C0.66 0 1.32 0 2 0 C2.33 0.66 2.66 1.32 3 2 C3.99 2.66 4.98 3.32 6 4 C4.02 4.33 2.04 4.66 0 5 C-0.66 4.01 -1.32 3.02 -2 2 C-1.34 1.34 -0.68 0.68 0 0 Z " fill="#A7A7A7" transform="translate(326,335)"/>
<path d="M0 0 C2 2 2 2 2.25 5.5 C2 9 2 9 0 11 C-0.84098656 6.98195309 -1.05404945 3.98196457 0 0 Z " fill="#C9CBCA" transform="translate(591,286)"/>
<path d="M0 0 C0.33 0.66 0.66 1.32 1 2 C0.22265625 4.1640625 0.22265625 4.1640625 -0.9375 6.625 C-1.31777344 7.44226563 -1.69804688 8.25953125 -2.08984375 9.1015625 C-2.39019531 9.72804688 -2.69054687 10.35453125 -3 11 C-3.33 11 -3.66 11 -4 11 C-4 8.69 -4 6.38 -4 4 C-3.34 4 -2.68 4 -2 4 C-1.34 2.68 -0.68 1.36 0 0 Z " fill="#9D9E9E" transform="translate(729,561)"/>
<path d="M0 0 C1.17841928 3.53525784 0.91399027 5.4202048 0 9 C-0.99 9.66 -1.98 10.32 -3 11 C-2.69078116 9.54096742 -2.37751201 8.08279278 -2.0625 6.625 C-1.88847656 5.81289063 -1.71445312 5.00078125 -1.53515625 4.1640625 C-1 2 -1 2 0 0 Z " fill="#979998" transform="translate(751,542)"/>
<path d="M0 0 C0.66 0.33 1.32 0.66 2 1 C2.625 3.0625 2.625 3.0625 3 5 C0.525 6.485 0.525 6.485 -2 8 C-1.34 5.36 -0.68 2.72 0 0 Z " fill="#A4A3A4" transform="translate(402,541)"/>
<path d="M0 0 C0 0.66 0 1.32 0 2 C-2.8125 4.1875 -2.8125 4.1875 -6 6 C-6.99 5.67 -7.98 5.34 -9 5 C-3.375 0 -3.375 0 0 0 Z " fill="#686968" transform="translate(496,334)"/>
<path d="M0 0 C0.99 0.33 1.98 0.66 3 1 C3 3 3 3 1.1875 4.9375 C0.465625 5.618125 -0.25625 6.29875 -1 7 C-1.5775 7.5775 -2.155 8.155 -2.75 8.75 C-3.36875 9.36875 -3.36875 9.36875 -4 10 C-2.8905928 6.51329166 -1.73662334 3.22515763 0 0 Z " fill="#757474" transform="translate(432,451)"/>
<path d="M0 0 C0.33 0.99 0.66 1.98 1 3 C-1.35277269 5.72426311 -3.62496331 6.8141763 -7 8 C-6.25 5.5625 -6.25 5.5625 -5 3 C-2.9375 2.3125 -2.9375 2.3125 -1 2 C-0.67 1.34 -0.34 0.68 0 0 Z " fill="#8B8D8F" transform="translate(695,278)"/>
<path d="M0 0 C0.33 0 0.66 0 1 0 C1 1.98 1 3.96 1 6 C-0.65 6.66 -2.3 7.32 -4 8 C-3.625 6.0625 -3.625 6.0625 -3 4 C-2.34 3.67 -1.68 3.34 -1 3 C-0.67 2.01 -0.34 1.02 0 0 Z " fill="#B1B2B2" transform="translate(646,652)"/>
<path d="M0 0 C0.99 0.33 1.98 0.66 3 1 C3 1.66 3 2.32 3 3 C-1.38461538 6 -1.38461538 6 -4 6 C-2.84826645 3.53199953 -1.95216435 1.95216435 0 0 Z " fill="#989996" transform="translate(705,625)"/>
<path d="M0 0 C1 3 1 3 0.25 5.625 C-1 8 -1 8 -4 9 C-2.94124926 5.59687262 -1.99097846 2.98646769 0 0 Z " fill="#9C9F9E" transform="translate(736,579)"/>
<path d="M0 0 C0.99 0 1.98 0 3 0 C1.25 5.75 1.25 5.75 -1 8 C-1.33 6.02 -1.66 4.04 -2 2 C-1.34 2 -0.68 2 0 2 C0 1.34 0 0.68 0 0 Z " fill="#6C6E6F" transform="translate(362,480)"/>
<path d="M0 0 C0.625 1.875 0.625 1.875 1 4 C-0.95216435 5.95216435 -2.53199953 6.84826645 -5 8 C-3.62845496 5.04590299 -2.01136276 2.55991624 0 0 Z " fill="#7C7D7D" transform="translate(371,445)"/>
<path d="M0 0 C-0.33 0.66 -0.66 1.32 -1 2 C-3.3140622 2.73075648 -5.64828869 3.40138258 -8 4 C-8.66 3.34 -9.32 2.68 -10 2 C-6.49223216 0.39644899 -3.85645121 -0.22036864 0 0 Z " fill="#7E8289" transform="translate(438,300)"/>
<path d="M0 0 C0.66 0.33 1.32 0.66 2 1 C0.55746343 4.36591866 -1.33264727 6.51047079 -4 9 C-3.35455571 5.51460083 -1.89865603 2.97180943 0 0 Z " fill="#999D9F" transform="translate(554,228)"/>
<path d="M0 0 C2.5654594 2.5654594 2.54046087 4.47686668 3 8 C2.01 8 1.02 8 0 8 C0 5.36 0 2.72 0 0 Z " fill="#7D7C7F" transform="translate(648,497)"/>
<path d="M0 0 C0 3 0 3 -1.3125 4.38671875 C-2.875 5.59114583 -4.4375 6.79557292 -6 8 C-5.690625 7.401875 -5.38125 6.80375 -5.0625 6.1875 C-3.89790296 3.91043228 -3.89790296 3.91043228 -3 1 C-2.01 0.67 -1.02 0.34 0 0 Z " fill="#DBDCD9" transform="translate(523,304)"/>
<path d="M0 0 C0 3.93169105 -1.39419615 5.16427228 -4 8 C-4.66 8 -5.32 8 -6 8 C-4.55746343 4.63408134 -2.66735273 2.48952921 0 0 Z " fill="#77797A" transform="translate(697,274)"/>
</svg>
